<?xml version="1.0" encoding="utf-8"?>
<!-- Generator: Adobe Illustrator 16.0.0, SVG Export Plug-In . SVG Version: 6.00 Build 0)  -->
<!DOCTYPE svg PUBLIC "-//W3C//DTD SVG 1.1//EN" "http://www.w3.org/Graphics/SVG/1.1/DTD/svg11.dtd">
<svg version="1.1" xmlns="http://www.w3.org/2000/svg" xmlns:xlink="http://www.w3.org/1999/xlink" x="0px" y="0px"
	 width="196.584px" height="93.299px" viewBox="0 0 196.584 93.299" enable-background="new 0 0 196.584 93.299"
	 xml:space="preserve">
<g id="Layer_1">
</g>
<g id="Layer_2">
	<linearGradient id="SVGID_1_" gradientUnits="userSpaceOnUse" x1="0" y1="39.25" x2="78.5" y2="39.25">
		<stop  offset="0" style="stop-color:#FFC32D"/>
		<stop  offset="1" style="stop-color:#FF9C00"/>
	</linearGradient>
	<path fill="url(#SVGID_1_)" d="M59.334,49.834c5.727-0.246,12.27-1.131,18.247-2.146c0.096-0.439,0.183-0.883,0.265-1.328
		c-7.364,0.42-12.512,0.475-12.512,0.475c3.978-0.172,8.35-0.65,12.653-1.268c0.141-0.871,0.253-1.751,0.336-2.64
		c-10.651,0.819-18.989,0.907-18.989,0.907c5.998-0.258,12.893-1.216,19.094-2.292c0.044-0.759,0.072-1.522,0.072-2.292
		c0-2.484-0.241-4.912-0.683-7.269c-17.341,2.653-36.483,2.853-36.483,2.853c13.366-0.575,31.183-4.618,35.837-5.721
		c-0.483-1.815-1.091-3.58-1.819-5.282c-26.286,3.718-54.018,4.003-54.018,4.003c18.044-0.776,41.267-5.587,52.017-8.01
		C66.592,7.986,53.857,0,39.25,0C17.573,0,0,17.572,0,39.25c0,5.118,0.99,10.002,2.772,14.486
		c6.059,0.138,22.804,0.297,35.132-1.717c0,0-17.118,3.371-33.912,4.485c0.043,0.087,0.09,0.172,0.133,0.259
		c6.928,0.122,22.278,0.134,33.779-1.744c0,0-16.068,3.164-32.341,4.375c0.316,0.529,0.646,1.051,0.987,1.563
		c7.675-0.061,17.864-0.437,26.089-1.779c0,0-11.414,2.248-24.744,3.681c0.737,0.978,1.518,1.921,2.342,2.825
		c7.846,0.01,19.614-0.275,28.888-1.789c0,0-12.613,2.484-26.807,3.893C19.348,74.424,28.82,78.5,39.25,78.5
		c18.309,0,33.689-12.537,38.026-29.495C67.132,49.752,59.334,49.834,59.334,49.834z"/>
	<g>
		<g>
			<path fill="#FFFFFF" d="M193.261,71.878c-0.627-1.11-1.151-2.326-1.706-3.614c-0.67-1.549-1.379-3.19-2.334-4.809
				c2.754-2.335,4.676-5.701,5.225-9.604l0.176-1.258c0.549-3.896,0.195-12.961-14.867-12.961h-15.518l-1.939,13.803
				c-2.079-8.078-6.45-13.06-8.408-14.275l-2.322-1.442l-2.71,1.481c-1.993,1.091-8.739,6.433-13.421,16.35l-3.844,8.151
				l-1.439,1.069c-0.443,0.095-1.447,0.255-3.162,0.255h-3.589l2.471-17.584c0.702-4.997-3.636-8.227-11.051-8.227h-5l-0.553,3.935
				c-2.786-2.601-7.14-4.019-12.832-4.019c-6.58,0-11.907,1.877-15.529,5.274c-1.566-2.808-5.475-5.274-14.389-5.274
				c-16.009,0-19.135,9.943-19.735,14.219c-0.616,4.387,0.437,7.346,2.246,9.371c-2.201,2.401-3.488,4.83-3.824,7.222
				c-0.906,6.448,4.912,10.614,14.82,10.614c6.818,0,12.455-2.154,16.1-5.853c2.557,3.784,7.518,5.895,14.484,5.895
				c6.342,0,11.512-1.763,15.11-4.958c1.228,2.735,4.4,4.455,8.762,4.455h11.899c0.934,0,2.061-0.12,3.228-0.489
				c1.021,0.325,2.706,0.782,4.149,0.782c6.93,0,10.099-4.706,11.865-8.128h2.27c0.805,3.421,2.651,8.128,9.581,8.128
				c1.791,0,4.111-0.677,5.026-0.969l1.047-0.333c1.813,0.875,4.193,1.376,7.063,1.427l5.075,0.089l0.542-3.858
				c1.82,2.364,4.708,3.687,8.183,3.687c1.363,0,3.443-0.453,4.947-0.833l7.227-1.827L193.261,71.878z M91.611,64.618l1.337-9.511
				c0.048-0.341,0.097-0.603,0.14-0.802c0.271-0.035,0.656-0.064,1.184-0.064s0.903,0.029,1.165,0.064
				c-0.013,0.199-0.038,0.461-0.086,0.802l-1.337,9.511c-0.051,0.361-0.102,0.636-0.147,0.841c-0.271,0.036-0.655,0.067-1.181,0.067
				s-0.902-0.031-1.163-0.067C91.535,65.254,91.561,64.979,91.611,64.618z"/>
		</g>
		<g>
			<g>
				<path fill="#444444" d="M65.816,44.129c6.83,0,11.49,1.425,10.925,5.447c-0.188,1.341-0.963,2.975-2.413,4.944
					c0.072-0.21,0.102-0.419,0.125-0.587c0.523-3.729-5.403-4.483-9.343-4.483c-3.101,0-5.397,0.545-5.757,3.101
					c-0.86,6.118,18.04-0.461,16.097,13.367c-0.901,6.41-6.886,9.637-14.722,9.637c-5.488,0-11.07-1.718-10.523-5.614
					c0.171-1.216,0.916-2.641,2.492-4.316c-0.535,3.813,5.26,4.609,8.779,4.609c4.064,0,6.097-1.341,6.444-3.813
					c0.972-6.913-17.928-0.335-16.138-13.072C52.778,46.266,58.819,44.129,65.816,44.129z"/>
			</g>
			<g>
				<path fill="#444444" d="M106.145,65.163c-0.919,6.537-5.74,10.434-14.833,10.434c-9.218,0-12.902-3.896-11.983-10.434
					l1.489-10.601c0.913-6.495,5.699-10.434,14.917-10.434c9.093,0,12.813,3.938,11.899,10.434L106.145,65.163z M100.351,55.107
					c0.524-3.729-0.182-5.866-5.377-5.866s-6.501,2.137-7.025,5.866l-1.337,9.511c-0.524,3.729,0.176,5.908,5.371,5.908
					s6.507-2.179,7.031-5.908L100.351,55.107z"/>
			</g>
			<g>
				<path fill="#444444" d="M115.184,75.094c0,0-5.404,0-4.951-3.227l3.887-27.654c0,0,7.207,0,6.753,3.227l-3.174,22.584h8.589
					c4.064,0,5.512-0.754,5.512-0.754c-0.406,2.892-1.111,5.824-4.715,5.824H115.184z"/>
			</g>
			<g>
				<path fill="#444444" d="M157.811,57.118l2.121,11.146c0.521,2.85,0.886,5.028,1.655,6.411c0,0-2.237,0.712-3.411,0.712
					c-4.441,0-5.012-3.101-5.652-6.285l-0.37-1.843h-9.386l-0.888,1.843c-1.536,3.185-2.979,6.285-7.42,6.285
					c-1.132,0-3.168-0.712-3.168-0.712c1.159-1.383,2.093-3.562,3.415-6.411l5.254-11.146c3.938-8.338,9.613-12.947,10.839-13.617
					C151.879,44.171,156.211,48.822,157.811,57.118z M146.596,58.208l-1.643,3.938h6.453l-0.537-3.938
					c-0.311-2.263-1.247-6.327-1.247-6.327S147.542,55.945,146.596,58.208z"/>
			</g>
			<g>
				<path fill="#444444" d="M180.73,61.896c4.791,3.478,5.557,8.464,8.039,12.863c0,0-2.65,0.67-3.656,0.67
					c-1.76,0-4.113-0.545-5.279-2.975c-1.336-2.724-2.73-8.003-6.625-9.805L171.4,75.513c0,0-7.189-0.126-6.754-3.227l3.887-27.654
					h10.518c6.787,0,11.419,1.928,10.57,7.961l-0.176,1.258C188.826,58.25,185.604,61.812,180.73,61.896z M175.021,49.744
					l-1.065,7.584h3.645c3.06,0,4.337-1.341,4.726-4.106c0.383-2.724-0.979-3.478-3.994-3.478H175.021z"/>
			</g>
		</g>
	</g>
	<g>
		<g>
			<linearGradient id="SVGID_2_" gradientUnits="userSpaceOnUse" x1="50.7637" y1="88.2148" x2="59.6533" y2="88.2148">
				<stop  offset="0" style="stop-color:#FFC32D"/>
				<stop  offset="1" style="stop-color:#FF9C00"/>
			</linearGradient>
			<path fill="url(#SVGID_2_)" d="M50.764,83.3h3.666c0.768,0,1.472,0.124,2.113,0.372c0.641,0.248,1.193,0.592,1.656,1.032
				c0.464,0.439,0.822,0.957,1.075,1.552s0.379,1.238,0.379,1.931v0.028c0,0.692-0.126,1.339-0.379,1.938
				c-0.253,0.6-0.611,1.119-1.075,1.56c-0.463,0.439-1.016,0.786-1.656,1.039c-0.642,0.253-1.346,0.379-2.113,0.379h-3.666V83.3z
				 M54.415,91.571c0.515,0,0.983-0.082,1.404-0.247c0.421-0.164,0.78-0.395,1.075-0.69c0.295-0.297,0.523-0.649,0.688-1.059
				c0.164-0.408,0.246-0.853,0.246-1.332v-0.028c0-0.479-0.082-0.926-0.246-1.34c-0.164-0.413-0.393-0.769-0.688-1.064
				s-0.654-0.529-1.075-0.698s-0.89-0.254-1.404-0.254h-1.938v6.713H54.415z"/>
			<linearGradient id="SVGID_3_" gradientUnits="userSpaceOnUse" x1="61.7461" y1="88.2148" x2="69.0898" y2="88.2148">
				<stop  offset="0" style="stop-color:#FFC32D"/>
				<stop  offset="1" style="stop-color:#FF9C00"/>
			</linearGradient>
			<path fill="url(#SVGID_3_)" d="M61.746,83.3h7.274v1.559h-5.562v2.527h4.93v1.56h-4.93v2.626h5.631v1.559h-7.344V83.3z"/>
			<linearGradient id="SVGID_4_" gradientUnits="userSpaceOnUse" x1="74.9316" y1="88.2148" x2="84.1309" y2="88.2148">
				<stop  offset="0" style="stop-color:#FFC32D"/>
				<stop  offset="1" style="stop-color:#FF9C00"/>
			</linearGradient>
			<path fill="url(#SVGID_4_)" d="M80.029,93.299c-0.768,0-1.465-0.129-2.092-0.387c-0.627-0.257-1.164-0.613-1.607-1.067
				c-0.445-0.454-0.789-0.987-1.033-1.601c-0.243-0.613-0.365-1.28-0.365-2.001v-0.028c0-0.684,0.125-1.334,0.375-1.952
				s0.602-1.158,1.054-1.622s0.989-0.831,1.612-1.103s1.303-0.407,2.043-0.407c0.431,0,0.822,0.03,1.173,0.092
				c0.351,0.061,0.677,0.147,0.976,0.26c0.3,0.112,0.583,0.25,0.85,0.414c0.268,0.164,0.527,0.354,0.779,0.568l-1.095,1.307
				c-0.188-0.159-0.38-0.305-0.576-0.436s-0.402-0.241-0.618-0.33c-0.215-0.089-0.451-0.159-0.709-0.211
				c-0.258-0.051-0.541-0.077-0.85-0.077c-0.449,0-0.868,0.094-1.257,0.281c-0.388,0.188-0.726,0.439-1.011,0.753
				c-0.285,0.314-0.511,0.683-0.674,1.104c-0.164,0.423-0.246,0.868-0.246,1.337v0.028c0,0.507,0.079,0.976,0.238,1.407
				c0.158,0.432,0.385,0.802,0.68,1.111c0.293,0.31,0.645,0.554,1.051,0.732c0.406,0.178,0.861,0.267,1.365,0.267
				c0.467,0,0.903-0.068,1.311-0.204c0.405-0.137,0.758-0.317,1.057-0.544v-1.85h-2.514v-1.503h4.186v4.129
				c-0.244,0.206-0.514,0.402-0.809,0.59c-0.294,0.188-0.613,0.352-0.954,0.491c-0.342,0.141-0.71,0.251-1.103,0.33
				C80.873,93.259,80.461,93.299,80.029,93.299z"/>
			<linearGradient id="SVGID_5_" gradientUnits="userSpaceOnUse" x1="85.5352" y1="88.1797" x2="95.7871" y2="88.1797">
				<stop  offset="0" style="stop-color:#FFC32D"/>
				<stop  offset="1" style="stop-color:#FF9C00"/>
			</linearGradient>
			<path fill="url(#SVGID_5_)" d="M89.86,83.229h1.601l4.326,9.9h-1.826l-0.997-2.373h-4.648l-1.011,2.373h-1.77L89.86,83.229z
				 M92.332,89.226l-1.699-3.932l-1.686,3.932H92.332z"/>
			<linearGradient id="SVGID_6_" gradientUnits="userSpaceOnUse" x1="97.4717" y1="88.2148" x2="105.8135" y2="88.2148">
				<stop  offset="0" style="stop-color:#FFC32D"/>
				<stop  offset="1" style="stop-color:#FF9C00"/>
			</linearGradient>
			<path fill="url(#SVGID_6_)" d="M97.472,83.3h4.382c0.617,0,1.166,0.086,1.643,0.26c0.479,0.173,0.875,0.414,1.194,0.723
				c0.262,0.272,0.464,0.586,0.604,0.941c0.141,0.355,0.211,0.749,0.211,1.18v0.028c0,0.402-0.059,0.765-0.176,1.088
				s-0.278,0.608-0.484,0.856s-0.452,0.459-0.737,0.632c-0.285,0.174-0.602,0.307-0.947,0.4l2.653,3.722h-2.036l-2.423-3.427h-0.028
				h-2.141v3.427h-1.714V83.3z M101.721,88.173c0.62,0,1.113-0.148,1.479-0.444c0.367-0.296,0.551-0.698,0.551-1.206v-0.028
				c0-0.535-0.18-0.942-0.536-1.22s-0.859-0.416-1.507-0.416h-2.521v3.314H101.721z"/>
			<linearGradient id="SVGID_7_" gradientUnits="userSpaceOnUse" x1="107.1895" y1="88.2148" x2="117.4697" y2="88.2148">
				<stop  offset="0" style="stop-color:#FFC32D"/>
				<stop  offset="1" style="stop-color:#FF9C00"/>
			</linearGradient>
			<path fill="url(#SVGID_7_)" d="M112.316,93.299c-0.759,0-1.452-0.134-2.079-0.4c-0.628-0.268-1.165-0.63-1.615-1.089
				c-0.449-0.458-0.8-0.994-1.054-1.607c-0.252-0.613-0.379-1.267-0.379-1.959v-0.028c0-0.693,0.127-1.346,0.379-1.959
				c0.254-0.613,0.609-1.151,1.068-1.615c0.458-0.464,1.002-0.831,1.629-1.103s1.32-0.407,2.078-0.407s1.451,0.134,2.078,0.4
				s1.166,0.63,1.615,1.088c0.449,0.459,0.801,0.995,1.053,1.608c0.254,0.613,0.38,1.267,0.38,1.959v0.028
				c0,0.692-0.126,1.346-0.38,1.959c-0.252,0.613-0.607,1.151-1.066,1.615c-0.459,0.463-1.002,0.831-1.629,1.103
				C113.767,93.162,113.074,93.299,112.316,93.299z M112.344,91.712c0.484,0,0.93-0.092,1.336-0.274
				c0.405-0.183,0.752-0.431,1.041-0.744s0.516-0.681,0.678-1.103c0.164-0.421,0.246-0.87,0.246-1.348v-0.028
				c0-0.478-0.082-0.93-0.246-1.355c-0.162-0.426-0.391-0.796-0.685-1.109s-0.646-0.563-1.056-0.751s-0.857-0.281-1.342-0.281
				c-0.486,0-0.931,0.092-1.336,0.274c-0.406,0.182-0.753,0.431-1.042,0.744s-0.515,0.681-0.679,1.103
				c-0.162,0.421-0.244,0.87-0.244,1.348v0.028c0,0.478,0.082,0.929,0.244,1.355c0.164,0.426,0.393,0.796,0.686,1.109
				c0.294,0.313,0.646,0.563,1.057,0.751C111.412,91.618,111.859,91.712,112.344,91.712z"/>
			<linearGradient id="SVGID_8_" gradientUnits="userSpaceOnUse" x1="119.5615" y1="88.2148" x2="127.1738" y2="88.2148">
				<stop  offset="0" style="stop-color:#FFC32D"/>
				<stop  offset="1" style="stop-color:#FF9C00"/>
			</linearGradient>
			<path fill="url(#SVGID_8_)" d="M119.562,83.3h3.876c0.571,0,1.088,0.077,1.553,0.231c0.463,0.154,0.855,0.377,1.179,0.667
				s0.571,0.637,0.745,1.039c0.172,0.403,0.26,0.853,0.26,1.349v0.027c0,0.553-0.104,1.037-0.311,1.454s-0.488,0.766-0.844,1.046
				c-0.357,0.281-0.775,0.494-1.254,0.64c-0.479,0.145-0.99,0.217-1.534,0.217h-1.956v3.16h-1.714V83.3z M123.29,88.411
				c0.657,0,1.177-0.164,1.558-0.493c0.38-0.329,0.57-0.752,0.57-1.27v-0.027c0-0.583-0.193-1.022-0.578-1.318
				s-0.901-0.444-1.55-0.444h-2.015v3.553H123.29z"/>
			<linearGradient id="SVGID_9_" gradientUnits="userSpaceOnUse" x1="128.0996" y1="88.1797" x2="138.3516" y2="88.1797">
				<stop  offset="0" style="stop-color:#FFC32D"/>
				<stop  offset="1" style="stop-color:#FF9C00"/>
			</linearGradient>
			<path fill="url(#SVGID_9_)" d="M132.426,83.229h1.601l4.325,9.9h-1.826l-0.996-2.373h-4.648l-1.012,2.373h-1.77L132.426,83.229z
				 M134.896,89.226l-1.699-3.932l-1.685,3.932H134.896z"/>
			<linearGradient id="SVGID_10_" gradientUnits="userSpaceOnUse" x1="140.0371" y1="88.2148" x2="148.21" y2="88.2148">
				<stop  offset="0" style="stop-color:#FFC32D"/>
				<stop  offset="1" style="stop-color:#FF9C00"/>
			</linearGradient>
			<path fill="url(#SVGID_10_)" d="M140.037,83.3h4.401c1.13,0,1.985,0.29,2.565,0.87c0.439,0.44,0.658,0.983,0.658,1.629v0.028
				c0,0.3-0.039,0.564-0.118,0.794s-0.181,0.431-0.306,0.604c-0.126,0.174-0.275,0.325-0.447,0.456
				c-0.171,0.132-0.346,0.244-0.521,0.338c0.288,0.103,0.551,0.222,0.789,0.357c0.236,0.136,0.441,0.298,0.613,0.484
				c0.173,0.188,0.305,0.407,0.398,0.66s0.14,0.548,0.14,0.885v0.028c0,0.44-0.087,0.828-0.259,1.166
				c-0.174,0.337-0.418,0.617-0.736,0.842s-0.701,0.396-1.149,0.513s-0.944,0.176-1.486,0.176h-4.542V83.3z M144.102,87.442
				c0.56,0,1.008-0.11,1.344-0.33s0.504-0.555,0.504-1.004V86.08c0-0.394-0.146-0.7-0.441-0.92c-0.294-0.22-0.721-0.33-1.28-0.33
				h-2.478v2.612H144.102z M144.606,91.6c0.588,0,1.05-0.113,1.386-0.338s0.504-0.562,0.504-1.011v-0.028
				c0-0.421-0.165-0.746-0.496-0.976c-0.332-0.229-0.838-0.345-1.52-0.345h-2.73V91.6H144.606z"/>
			<linearGradient id="SVGID_11_" gradientUnits="userSpaceOnUse" x1="149.334" y1="88.1797" x2="159.585" y2="88.1797">
				<stop  offset="0" style="stop-color:#FFC32D"/>
				<stop  offset="1" style="stop-color:#FF9C00"/>
			</linearGradient>
			<path fill="url(#SVGID_11_)" d="M153.658,83.229h1.602l4.325,9.9h-1.825l-0.998-2.373h-4.648l-1.01,2.373h-1.77L153.658,83.229z
				 M156.131,89.226l-1.699-3.932l-1.686,3.932H156.131z"/>
		</g>
	</g>
</g>
</svg>
